<svg width="1440" height="320" xmlns="http://www.w3.org/2000/svg">

 <g>
  <title>background</title>
  <rect fill="none" id="canvas_background" height="322" width="1575" y="-1" x="-1"/>
 </g>
 <g>
  <title>Layer 1</title>
  <path stroke="null" id="svg_1" d="m0,156.62598l26.7,-20.83843c26.6,-20.83843 80.3,-62.5153 133.3,-41.67687c53.3,20.83843 107,104.19217 160,83.35373c53.3,-20.83843 107,-145.86903 160,-166.70747c53.3,-20.83843 107,62.5153 160,118.12787c53.3,55.09161 107,83.74445 160,55.48233c53.3,-27.74116 107,-111.0949 160,-117.99763c53.3,-7.42369 107,62.90602 160,104.19217c53.3,42.06759 107,55.09161 160,34.6439c53.3,-21.22915 107,-75.93004 133,-104.19217l27,-27.74116l0,250.0612l-26.7,0c-26.6,0 -80.3,0 -133.3,0c-53.3,0 -107,0 -160,0c-53.3,0 -107,0 -160,0c-53.3,0 -107,0 -160,0c-53.3,0 -107,0 -160,0c-53.3,0 -107,0 -160,0c-53.3,0 -107,0 -160,0c-53.3,0 -107,0 -160,0c-53.3,0 -107,0 -133,0l-27,0l0,-166.70747z" fill-opacity="0.6" fill="#81e9de"/>
 </g>
</svg>